<svg width="38" height="38" viewBox="0 0 38 38" fill="none" xmlns="http://www.w3.org/2000/svg">
<g clip-path="url(#clip0_523_729)">
<path d="M38 12.1527C38 18.7263 6.31011 25.9822 3.91052 25.9822C2.56518 25.9822 1.03879 25.6721 1.03879 24.4318C1.03879 24.0174 1.51708 23.4185 2.35637 22.6964L2.35544 22.6969L0.130946 18.7444C-0.17026 18.2093 0.0685439 17.5314 0.638544 17.3031L1.02084 17.1501C1.71372 16.8727 2.49353 16.914 3.15313 17.2631L7.1915 19.4011C8.76384 18.4685 10.5475 17.492 12.4274 16.5307L4.55764 11.4249C3.93505 11.021 3.94169 10.1073 4.57012 9.71257L5.21388 9.30811C6.28533 8.63497 7.58789 8.43616 8.81134 8.75885L21.9033 12.2121C25.9854 10.5919 29.676 9.48606 31.8605 9.48606C32.4439 9.48606 33.0282 9.50152 33.5921 9.54182L29.6384 11.3266L29.5438 12.6565L35.6467 9.85103C37.1097 10.1999 38 10.8511 38 12.1527ZM22.073 23.5002L26.9564 29.0477C27.254 29.3858 27.7387 29.4875 28.1471 29.2977L28.8011 28.9937C29.9937 28.4394 30.6962 27.1824 30.5434 25.8762L29.9321 20.6489C29.8942 20.3255 29.566 20.1208 29.2588 20.2289L22.2855 22.6854C21.9461 22.8051 21.8352 23.23 22.073 23.5002Z" fill="#0056A4"/>
</g>
<defs>
<clipPath id="clip0_523_729">
<rect width="38" height="38" fill="white"/>
</clipPath>
</defs>
</svg>
