<svg width="30" height="30" viewBox="0 0 30 30" fill="none" xmlns="http://www.w3.org/2000/svg">
<g clip-path="url(#clip0_1_1942)">
<path d="M30 9.59413C30 14.7838 4.98166 20.5121 3.08725 20.5121C2.02514 20.5121 0.820094 20.2673 0.820094 19.2881C0.820094 18.961 1.19769 18.4881 1.86029 17.9181L1.85956 17.9185L0.103378 14.7981C-0.134416 14.3756 0.0541136 13.8404 0.504114 13.6603L0.805928 13.5394C1.35294 13.3204 1.96858 13.353 2.48931 13.6287L5.6775 15.3165C6.91882 14.5803 8.32696 13.8094 9.81113 13.0504L3.59813 9.01957C3.10661 8.70064 3.11186 7.97937 3.60799 7.6677L4.11622 7.34839C4.96211 6.81697 5.99044 6.66001 6.95632 6.91476L17.2921 9.64104C20.5148 8.36192 23.4284 7.48888 25.153 7.48888C25.6136 7.48888 26.0749 7.50109 26.5201 7.5329L23.3987 8.94197L23.324 9.99187L28.1422 7.77702C29.2971 8.05246 30 8.56653 30 9.59413ZM17.4261 18.5527L21.2814 22.9323C21.5163 23.1992 21.899 23.2795 22.2214 23.1297L22.7377 22.8897C23.6793 22.452 24.2338 21.4597 24.1132 20.4284L23.6306 16.3017C23.6007 16.0463 23.3416 15.8847 23.0991 15.9701L17.5938 17.9094C17.3258 18.0039 17.2383 18.3394 17.4261 18.5527Z" fill="#0056A4"/>
</g>
<defs>
<clipPath id="clip0_1_1942">
<rect width="30" height="30" fill="white"/>
</clipPath>
</defs>
</svg>
