<svg width="38" height="38" viewBox="0 0 38 38" fill="none" xmlns="http://www.w3.org/2000/svg">
<path d="M32.7937 18.3021C32.6612 17.945 32.3439 17.7338 32.0124 17.591L29.9467 16.812V9.11309C29.9467 8.79745 29.8157 8.49474 29.5824 8.27154C29.3491 8.04835 29.0327 7.92296 28.7027 7.92296H23.9755V6.01875C23.9755 5.76624 23.8706 5.52407 23.684 5.34552C23.4974 5.16696 23.2442 5.06665 22.9803 5.06665H15.0186C14.7547 5.06665 14.5015 5.16696 14.3149 5.34552C14.1283 5.52407 14.0234 5.76624 14.0234 6.01875V7.92296H9.29618C8.96625 7.92296 8.64983 8.04835 8.41653 8.27154C8.18324 8.49474 8.05217 8.79745 8.05217 9.11309V16.8168L5.99458 17.594C5.66305 17.7368 5.3365 17.951 5.20339 18.308C5.07028 18.6651 5.00684 19.0108 5.14119 19.4387L8.31652 28.3753H8.38246C10.5047 28.3753 12.3633 27.3393 13.6888 25.7678C15.0149 27.3393 16.8722 28.2742 18.9945 28.2742C21.1168 28.2742 22.9753 27.3364 24.3008 25.7648C25.6269 27.3364 27.4842 28.3753 29.6065 28.3753H29.6724L32.8602 19.4393C32.9946 19.0822 32.9268 18.6597 32.7937 18.3021ZM18.9995 12.6835L10.0426 16.0652V10.0652C10.0426 10.0021 10.0688 9.94152 10.1155 9.89689C10.1621 9.85225 10.2254 9.82717 10.2914 9.82717H27.7075C27.7735 9.82717 27.8368 9.85225 27.8835 9.89689C27.9301 9.94152 27.9563 10.0021 27.9563 10.0652V16.0611L18.9995 12.6835Z" fill="#2361A9"/>
<path d="M24.549 27.8576C21.299 30.0153 16.69 30.0147 13.44 27.8576C13.44 27.8576 10.6011 31.6065 7.55333 31.6065L8.38246 31.6661C10.2398 31.6661 12.0305 30.968 13.6888 30.1433C15.3282 30.9564 17.1478 31.3808 18.9945 31.3808C20.8411 31.3808 22.6608 30.9564 24.3002 30.1433C25.9584 30.9686 27.7492 31.6666 29.6065 31.6666L30.4356 31.6071C27.4718 31.6065 24.549 27.8576 24.549 27.8576Z" fill="#2361A9"/>
</svg>
