<svg width="24" height="25" viewBox="0 0 24 25" fill="none" xmlns="http://www.w3.org/2000/svg">
<path d="M2 20.2273C2 20.4322 2.07525 20.6288 2.20921 20.7737C2.34316 20.9186 2.52485 21 2.71429 21H21.2857C21.4752 21 21.6568 20.9186 21.7908 20.7737C21.9247 20.6288 22 20.4322 22 20.2273V10.858H2V20.2273ZM4.94643 13.5625C4.94643 13.46 4.98406 13.3618 5.05103 13.2893C5.11801 13.2168 5.20885 13.1761 5.30357 13.1761H9.41071C9.50543 13.1761 9.59628 13.2168 9.66325 13.2893C9.73023 13.3618 9.76786 13.46 9.76786 13.5625V16.6534C9.76786 16.7559 9.73023 16.8542 9.66325 16.9266C9.59628 16.9991 9.50543 17.0398 9.41071 17.0398H5.30357C5.20885 17.0398 5.11801 16.9991 5.05103 16.9266C4.98406 16.8542 4.94643 16.7559 4.94643 16.6534V13.5625Z" fill="#2361A9"/>
<path d="M21.2857 4H2.71429C2.52485 4 2.34316 4.08141 2.20921 4.22633C2.07525 4.37124 2 4.56779 2 4.77273V7.96023H22V4.77273C22 4.56779 21.9247 4.37124 21.7908 4.22633C21.6568 4.08141 21.4752 4 21.2857 4Z" fill="#2361A9"/>
</svg>
