<svg width="25" height="25" viewBox="0 0 25 25" fill="none" xmlns="http://www.w3.org/2000/svg">
<path d="M22.458 2.59987C22.3867 2.52147 22.3002 2.45835 22.2037 2.41433C22.1073 2.3703 22.0029 2.34629 21.897 2.34373C21.791 2.34118 21.6856 2.36013 21.5872 2.39946C21.4887 2.43878 21.3993 2.49766 21.3242 2.57252L20.7202 3.1736C20.647 3.24685 20.6059 3.34617 20.6059 3.44972C20.6059 3.55328 20.647 3.6526 20.7202 3.72584L21.2739 4.27858C21.3102 4.31504 21.3534 4.34398 21.4009 4.36372C21.4484 4.38347 21.4993 4.39363 21.5508 4.39363C21.6022 4.39363 21.6532 4.38347 21.7007 4.36372C21.7482 4.34398 21.7913 4.31504 21.8276 4.27858L22.4165 3.69264C22.7144 3.39528 22.7422 2.9109 22.458 2.59987Z" fill="#2361A9"/>
<path d="M19.499 4.3943L10.6846 13.1931C10.6311 13.2464 10.5923 13.3124 10.5718 13.385L10.1641 14.5994C10.1543 14.6323 10.1536 14.6673 10.1621 14.7006C10.1705 14.7339 10.1878 14.7643 10.2121 14.7886C10.2364 14.8129 10.2668 14.8302 10.3001 14.8387C10.3334 14.8471 10.3684 14.8465 10.4014 14.8367L11.6147 14.429C11.6873 14.4085 11.7534 14.3696 11.8066 14.3162L20.6055 5.50075C20.6869 5.41847 20.7325 5.3074 20.7325 5.19166C20.7325 5.07592 20.6869 4.96486 20.6055 4.88258L20.1196 4.3943C20.0373 4.31216 19.9257 4.26603 19.8093 4.26603C19.693 4.26603 19.5814 4.31216 19.499 4.3943Z" fill="#2361A9"/>
<path d="M18.8643 9.45582L12.9126 15.4192C12.6826 15.6498 12.3998 15.8209 12.0889 15.9177L10.8242 16.3411C10.5241 16.4258 10.2068 16.429 9.905 16.3503C9.60323 16.2716 9.32789 16.1139 9.10736 15.8934C8.88684 15.6729 8.7291 15.3975 8.65041 15.0957C8.57171 14.794 8.57491 14.4767 8.65967 14.1765L9.08301 12.9119C9.17956 12.601 9.35033 12.3183 9.58057 12.0881L15.5439 6.13551C15.5986 6.08091 15.6359 6.01133 15.651 5.93556C15.6661 5.85979 15.6584 5.78124 15.6289 5.70984C15.5993 5.63845 15.5493 5.57741 15.4851 5.53446C15.4208 5.4915 15.3453 5.46856 15.2681 5.46852H5.07812C4.35292 5.46852 3.65742 5.75661 3.14463 6.2694C2.63184 6.7822 2.34375 7.47769 2.34375 8.2029V19.9216C2.34375 20.6468 2.63184 21.3423 3.14463 21.8551C3.65742 22.3679 4.35292 22.656 5.07812 22.656H16.7969C17.5221 22.656 18.2176 22.3679 18.7304 21.8551C19.2432 21.3423 19.5312 20.6468 19.5312 19.9216V9.7317C19.5312 9.65444 19.5083 9.57893 19.4653 9.51471C19.4224 9.45049 19.3613 9.40045 19.2899 9.37092C19.2185 9.34139 19.14 9.33369 19.0642 9.34881C18.9884 9.36392 18.9189 9.40116 18.8643 9.45582Z" fill="#2361A9"/>
</svg>
