<svg width="24" height="25" viewBox="0 0 24 25" fill="none" xmlns="http://www.w3.org/2000/svg">
<path d="M20.8894 6.88849C20.9185 6.87198 20.9425 6.84834 20.9593 6.81993C20.976 6.79152 20.9848 6.75932 20.9848 6.72656C20.9848 6.69379 20.976 6.6616 20.9593 6.63318C20.9425 6.60477 20.9185 6.58113 20.8894 6.56462L13.5462 2.40534C13.0763 2.13983 12.5428 2 11.9998 2C11.4567 2 10.9232 2.13983 10.4534 2.40534L3.11154 6.56462C3.08251 6.58113 3.05843 6.60477 3.04169 6.63318C3.02495 6.6616 3.01614 6.69379 3.01614 6.72656C3.01614 6.75932 3.02495 6.79152 3.04169 6.81993C3.05843 6.84834 3.08251 6.87198 3.11154 6.88849L11.9038 11.9308C11.9334 11.9478 11.9671 11.9567 12.0014 11.9567C12.0358 11.9567 12.0695 11.9478 12.099 11.9308L20.8894 6.88849Z" fill="#2361A9"/>
<path d="M2.28847 8.16384C2.25914 8.14733 2.22586 8.13866 2.192 8.13872C2.15814 8.13877 2.12489 8.14754 2.09562 8.16414C2.06634 8.18074 2.04209 8.20458 2.0253 8.23325C2.00851 8.26192 1.99978 8.2944 2 8.32741V16.4777C2.00073 16.8705 2.10691 17.2562 2.30799 17.5965C2.50907 17.9369 2.79804 18.22 3.14616 18.4177L10.9423 22.9749C10.9715 22.9913 11.0047 23 11.0384 23C11.0722 23 11.1053 22.9914 11.1345 22.9749C11.1638 22.9585 11.188 22.9349 11.2049 22.9064C11.2218 22.8779 11.2307 22.8456 11.2308 22.8127V13.3566C11.2307 13.3237 11.2218 13.2914 11.205 13.263C11.1881 13.2345 11.1638 13.2109 11.1346 13.1944L2.28847 8.16384Z" fill="#2361A9"/>
<path d="M12.7692 13.3894V22.8104C12.7693 22.8433 12.7782 22.8756 12.7951 22.904C12.812 22.9325 12.8362 22.9562 12.8655 22.9726C12.8947 22.989 12.9279 22.9977 12.9616 22.9977C12.9953 22.9977 13.0285 22.989 13.0577 22.9725L20.8534 18.4153C21.2012 18.2179 21.4901 17.9352 21.6912 17.5953C21.8924 17.2554 21.9988 16.8701 22 16.4777V8.32741C21.9999 8.29456 21.9909 8.26231 21.974 8.2339C21.9571 8.2055 21.9328 8.18192 21.9036 8.16555C21.8743 8.14917 21.8412 8.14056 21.8075 8.14059C21.7738 8.14062 21.7407 8.14928 21.7115 8.16571L12.8654 13.2277C12.8363 13.2441 12.812 13.2677 12.7952 13.2961C12.7783 13.3244 12.7694 13.3566 12.7692 13.3894Z" fill="#2361A9"/>
</svg>
