<svg width="40" height="40" viewBox="0 0 40 40" fill="none" xmlns="http://www.w3.org/2000/svg">
<path d="M34.2231 10.3803C34.2695 10.352 34.3081 10.3114 34.3348 10.2627C34.3616 10.214 34.3757 10.1588 34.3757 10.1027C34.3757 10.0465 34.3616 9.99131 34.3348 9.9426C34.3081 9.89389 34.2695 9.85337 34.2231 9.82506L22.4739 2.69487C21.7221 2.23971 20.8686 2 19.9996 2C19.1307 2 18.2772 2.23971 17.5254 2.69487L5.77847 9.82506C5.73202 9.85337 5.69348 9.89389 5.6667 9.9426C5.63992 9.99131 5.62583 10.0465 5.62583 10.1027C5.62583 10.1588 5.63992 10.214 5.6667 10.2627C5.69348 10.3114 5.73202 10.352 5.77847 10.3803L19.8462 19.0242C19.8935 19.0534 19.9474 19.0687 20.0023 19.0687C20.0572 19.0687 20.1111 19.0534 20.1585 19.0242L34.2231 10.3803Z" fill="#E40137"/>
<path d="M4.46154 12.5666C4.41462 12.5383 4.36138 12.5234 4.3072 12.5235C4.25302 12.5236 4.19982 12.5386 4.15299 12.5671C4.10615 12.5955 4.06734 12.6364 4.04048 12.6856C4.01362 12.7347 3.99966 12.7904 4.00001 12.847V26.8189C4.00117 27.4922 4.17106 28.1535 4.49279 28.7369C4.81451 29.3204 5.27686 29.8057 5.83385 30.1446L18.3077 37.9569C18.3544 37.9851 18.4075 38 18.4615 38C18.5154 38 18.5685 37.9852 18.6153 37.957C18.662 37.9289 18.7009 37.8883 18.7279 37.8395C18.7549 37.7907 18.7692 37.7353 18.7692 37.6789V21.4685C18.7692 21.4121 18.7549 21.3568 18.7279 21.308C18.7009 21.2592 18.6621 21.2186 18.6154 21.1905L4.46154 12.5666Z" fill="#E40137"/>
<path d="M21.2308 21.5247V37.6749C21.2308 37.7313 21.2451 37.7867 21.2721 37.8355C21.2991 37.8843 21.338 37.9248 21.3848 37.953C21.4315 37.9812 21.4846 37.996 21.5385 37.996C21.5925 37.996 21.6456 37.9811 21.6923 37.9529L34.1654 30.1406C34.722 29.8021 35.1841 29.3175 35.5059 28.7348C35.8278 28.1521 35.9981 27.4916 36 26.8189V12.847C35.9998 12.7907 35.9855 12.7354 35.9584 12.6867C35.9313 12.638 35.8924 12.5976 35.8457 12.5695C35.7989 12.5414 35.746 12.5267 35.692 12.5267C35.6381 12.5268 35.5852 12.5416 35.5385 12.5698L21.3846 21.2475C21.338 21.2756 21.2993 21.316 21.2723 21.3647C21.2453 21.4133 21.231 21.4685 21.2308 21.5247Z" fill="#E40137"/>
</svg>
