<svg width="24" height="25" viewBox="0 0 24 25" fill="none" xmlns="http://www.w3.org/2000/svg">
<path d="M20.0625 10.9297H13.5C12.9033 10.9297 12.331 10.6926 11.909 10.2707C11.4871 9.84872 11.25 9.27642 11.25 8.67969V2.11719C11.25 2.06746 11.2302 2.01977 11.1951 1.98461C11.1599 1.94944 11.1122 1.92969 11.0625 1.92969H6.75C5.95435 1.92969 5.19129 2.24576 4.62868 2.80837C4.06607 3.37098 3.75 4.13404 3.75 4.92969V19.9297C3.75 20.7253 4.06607 21.4884 4.62868 22.051C5.19129 22.6136 5.95435 22.9297 6.75 22.9297H17.25C18.0456 22.9297 18.8087 22.6136 19.3713 22.051C19.9339 21.4884 20.25 20.7253 20.25 19.9297V11.1172C20.25 11.0675 20.2302 11.0198 20.1951 10.9846C20.1599 10.9494 20.1122 10.9297 20.0625 10.9297ZM15.75 18.4297H8.25C8.05109 18.4297 7.86032 18.3507 7.71967 18.21C7.57902 18.0694 7.5 17.8786 7.5 17.6797C7.5 17.4808 7.57902 17.29 7.71967 17.1494C7.86032 17.0087 8.05109 16.9297 8.25 16.9297H15.75C15.9489 16.9297 16.1397 17.0087 16.2803 17.1494C16.421 17.29 16.5 17.4808 16.5 17.6797C16.5 17.8786 16.421 18.0694 16.2803 18.21C16.1397 18.3507 15.9489 18.4297 15.75 18.4297ZM15.75 14.6797H8.25C8.05109 14.6797 7.86032 14.6007 7.71967 14.46C7.57902 14.3194 7.5 14.1286 7.5 13.9297C7.5 13.7308 7.57902 13.54 7.71967 13.3994C7.86032 13.2587 8.05109 13.1797 8.25 13.1797H15.75C15.9489 13.1797 16.1397 13.2587 16.2803 13.3994C16.421 13.54 16.5 13.7308 16.5 13.9297C16.5 14.1286 16.421 14.3194 16.2803 14.46C16.1397 14.6007 15.9489 14.6797 15.75 14.6797Z" fill="#2361A9"/>
<path d="M19.6509 9.26984L12.9098 2.52875C12.8967 2.51572 12.8801 2.50685 12.8619 2.50327C12.8438 2.49968 12.825 2.50154 12.8079 2.5086C12.7908 2.51566 12.7762 2.52762 12.7659 2.54297C12.7556 2.55831 12.7501 2.57636 12.75 2.59484V8.67969C12.75 8.8786 12.829 9.06937 12.9697 9.21002C13.1103 9.35067 13.3011 9.42969 13.5 9.42969H19.5848C19.6033 9.42961 19.6214 9.42407 19.6367 9.41376C19.6521 9.40346 19.664 9.38884 19.6711 9.37176C19.6781 9.35468 19.68 9.33589 19.6764 9.31776C19.6728 9.29962 19.664 9.28295 19.6509 9.26984Z" fill="#2361A9"/>
</svg>
