<svg width="40" height="40" viewBox="0 0 40 40" fill="none" xmlns="http://www.w3.org/2000/svg">
<path d="M32.7045 17.5714H22.3636C21.4233 17.5714 20.5215 17.1876 19.8566 16.5045C19.1917 15.8213 18.8182 14.8947 18.8182 13.9286V3.30357C18.8182 3.22306 18.7871 3.14584 18.7316 3.08891C18.6762 3.03198 18.6011 3 18.5227 3H11.7273C10.4735 3 9.27112 3.51173 8.38459 4.42262C7.49805 5.33352 7 6.56895 7 7.85714V32.1429C7 33.4311 7.49805 34.6665 8.38459 35.5774C9.27112 36.4883 10.4735 37 11.7273 37H28.2727C29.5265 37 30.7289 36.4883 31.6154 35.5774C32.5019 34.6665 33 33.4311 33 32.1429V17.875C33 17.7945 32.9689 17.7173 32.9135 17.6603C32.8581 17.6034 32.7829 17.5714 32.7045 17.5714ZM25.9091 29.7143H14.0909C13.7775 29.7143 13.4769 29.5864 13.2552 29.3586C13.0336 29.1309 12.9091 28.8221 12.9091 28.5C12.9091 28.178 13.0336 27.8691 13.2552 27.6414C13.4769 27.4136 13.7775 27.2857 14.0909 27.2857H25.9091C26.2225 27.2857 26.5231 27.4136 26.7448 27.6414C26.9664 27.8691 27.0909 28.178 27.0909 28.5C27.0909 28.8221 26.9664 29.1309 26.7448 29.3586C26.5231 29.5864 26.2225 29.7143 25.9091 29.7143ZM25.9091 23.6429H14.0909C13.7775 23.6429 13.4769 23.5149 13.2552 23.2872C13.0336 23.0595 12.9091 22.7506 12.9091 22.4286C12.9091 22.1065 13.0336 21.7977 13.2552 21.5699C13.4769 21.3422 13.7775 21.2143 14.0909 21.2143H25.9091C26.2225 21.2143 26.5231 21.3422 26.7448 21.5699C26.9664 21.7977 27.0909 22.1065 27.0909 22.4286C27.0909 22.7506 26.9664 23.0595 26.7448 23.2872C26.5231 23.5149 26.2225 23.6429 25.9091 23.6429Z" fill="#E40137"/>
<path d="M32.056 14.8841L21.4337 3.96991C21.413 3.94881 21.3868 3.93446 21.3582 3.92865C21.3296 3.92285 21.3 3.92585 21.2731 3.93729C21.2462 3.94873 21.2232 3.96808 21.2069 3.99293C21.1907 4.01777 21.1819 4.04699 21.1818 4.07692V13.9286C21.1818 14.2506 21.3063 14.5595 21.528 14.7872C21.7496 15.0149 22.0502 15.1429 22.3636 15.1429H31.9519C31.981 15.1427 32.0094 15.1338 32.0336 15.1171C32.0578 15.1004 32.0766 15.0767 32.0878 15.0491C32.0989 15.0214 32.1018 14.991 32.0962 14.9616C32.0905 14.9323 32.0766 14.9053 32.056 14.8841Z" fill="#E40137"/>
</svg>
