<svg width="24" height="25" viewBox="0 0 24 25" fill="none" xmlns="http://www.w3.org/2000/svg">
<path d="M3.75 22.9297C3.55109 22.9297 3.36032 22.8507 3.21967 22.71C3.07902 22.5694 3 22.3786 3 22.1797V3.62328C3.00005 3.42677 3.05158 3.23371 3.14945 3.0633C3.24731 2.8929 3.38811 2.7511 3.55781 2.65203C4.125 2.3225 5.26781 1.92969 7.5 1.92969C9.24422 1.92969 11.1952 2.61922 12.9164 3.22719C14.3025 3.71703 15.6117 4.17969 16.5 4.17969C17.6435 4.17618 18.7748 3.94513 19.8281 3.5C19.9564 3.44586 20.0961 3.4243 20.2347 3.43724C20.3733 3.45018 20.5066 3.49722 20.6226 3.57417C20.7386 3.65112 20.8338 3.75558 20.8997 3.87825C20.9655 4.00091 21 4.13796 21 4.27719V14.5597C20.9998 14.7419 20.9465 14.9202 20.8466 15.0726C20.7467 15.2251 20.6045 15.3451 20.4375 15.418C20.0292 15.5966 18.5386 16.1797 16.5 16.1797C15.3684 16.1797 13.9509 15.845 12.4505 15.4902C10.7639 15.0917 9.02016 14.6797 7.5 14.6797C5.77172 14.6797 4.88719 14.9412 4.5 15.1067V22.1797C4.5 22.3786 4.42098 22.5694 4.28033 22.71C4.13968 22.8507 3.94891 22.9297 3.75 22.9297Z" fill="#2361A9"/>
</svg>
