<svg width="25" height="36" viewBox="0 0 25 36" fill="none" xmlns="http://www.w3.org/2000/svg">
<path d="M12.5001 0C5.60748 0 0 5.71946 0 12.7498C0 25.0767 11.5282 35.3849 12.0192 35.8169C12.1573 35.9385 12.3294 36 12.5 36C12.6706 36 12.8427 35.9385 12.9808 35.8169C13.472 35.3835 25 25.0754 25 12.7498C25 5.71952 19.3927 0 12.5001 0Z" fill="#E40137"/>
<path d="M12.5 18C15.5376 18 18 15.5376 18 12.5C18 9.46244 15.5376 7 12.5 7C9.46243 7 7 9.46244 7 12.5C7 15.5376 9.46243 18 12.5 18Z" fill="white"/>
</svg>
