<svg width="24" height="25" viewBox="0 0 24 25" fill="none" xmlns="http://www.w3.org/2000/svg">
<path d="M12.278 5.2475C12.2035 5.18074 12.1045 5.14348 12.0015 5.14348C11.8985 5.14348 11.7994 5.18074 11.725 5.2475L2.52001 13.4914C2.48092 13.5265 2.44982 13.5686 2.42859 13.6152C2.40736 13.6619 2.39645 13.7121 2.39651 13.7628L2.39501 21.5C2.39501 21.8978 2.56358 22.2794 2.86364 22.5607C3.1637 22.842 3.57066 23 3.99501 23H8.8C9.01217 23 9.21565 22.921 9.36568 22.7803C9.51571 22.6397 9.6 22.4489 9.6 22.25V15.875C9.6 15.7755 9.64214 15.6802 9.71715 15.6098C9.79217 15.5395 9.89391 15.5 9.99999 15.5H14C14.1061 15.5 14.2078 15.5395 14.2828 15.6098C14.3578 15.6802 14.4 15.7755 14.4 15.875V22.25C14.4 22.4489 14.4843 22.6397 14.6343 22.7803C14.7843 22.921 14.9878 23 15.2 23H20.003C20.4273 23 20.8343 22.842 21.1343 22.5607C21.4344 22.2794 21.603 21.8978 21.603 21.5V13.7628C21.603 13.7121 21.5921 13.6619 21.5709 13.6152C21.5497 13.5686 21.5186 13.5265 21.4795 13.4914L12.278 5.2475Z" fill="#2361A9"/>
<path d="M23.7455 11.9445L20.0055 8.59016V3.5C20.0055 3.30109 19.9212 3.11032 19.7712 2.96967C19.6211 2.82902 19.4176 2.75 19.2055 2.75H16.8055C16.5933 2.75 16.3898 2.82902 16.2398 2.96967C16.0898 3.11032 16.0055 3.30109 16.0055 3.5V5L13.1095 2.40406C12.8385 2.14719 12.4355 2 12 2C11.566 2 11.164 2.14719 10.893 2.40453L0.258018 11.9436C-0.0529809 12.2248 -0.0919808 12.6875 0.191018 12.9922C0.262084 13.0691 0.349099 13.1316 0.446767 13.176C0.544436 13.2204 0.650715 13.2457 0.759137 13.2503C0.867559 13.255 0.975857 13.2389 1.07744 13.2031C1.17902 13.1672 1.27176 13.1124 1.35002 13.0419L11.725 3.7475C11.7994 3.68074 11.8985 3.64348 12.0015 3.64348C12.1045 3.64348 12.2035 3.68074 12.278 3.7475L22.654 13.0419C22.8068 13.1793 23.0115 13.2543 23.2233 13.2504C23.435 13.2465 23.6364 13.1641 23.7835 13.0212C24.0905 12.7231 24.065 12.2309 23.7455 11.9445Z" fill="#2361A9"/>
</svg>
