<svg width="40" height="40" viewBox="0 0 40 40" fill="none" xmlns="http://www.w3.org/2000/svg">
<path d="M33.8042 6.44702C32.5933 6.44702 31.6082 7.43218 31.6082 8.6431V15.1099C32.0291 15.3058 32.4236 15.5772 32.771 15.9245C34.3639 17.5172 34.364 20.0997 32.7712 21.6925L29.2152 25.2485C28.8476 25.6161 28.2517 25.6161 27.8842 25.2485C27.5166 24.8809 27.5166 24.2851 27.8842 23.9175L31.4401 20.3615C32.2978 19.5039 32.2977 18.1133 31.44 17.2557C30.5823 16.3982 29.192 16.3983 28.3344 17.2558L23.0547 22.5358C21.6919 23.8987 20.9414 25.7107 20.9414 27.638L20.9415 36.0628H28.7846C29.3044 36.0628 29.7258 35.6414 29.7258 35.1216V31.7398C29.7258 31.2271 29.9066 30.7278 30.2348 30.3339L34.3279 25.4222C35.4064 24.128 36.0003 22.4875 36.0003 20.8028V8.6431C36.0003 7.43218 35.0152 6.44702 33.8042 6.44702Z" fill="#E40137"/>
<path d="M16.9456 22.5358L11.6658 17.2558C10.8083 16.3983 9.41793 16.3982 8.56026 17.2557C7.70253 18.1133 7.70247 19.5039 8.56014 20.3615L12.1161 23.9175C12.4837 24.2851 12.4837 24.8809 12.1161 25.2485C11.7485 25.6161 11.1526 25.6161 10.7851 25.2485L7.22906 21.6925C5.63627 20.0997 5.63633 17.5172 7.22931 15.9245C7.57667 15.5772 7.97115 15.3057 8.3921 15.1099L8.39217 8.6431C8.39217 7.43218 7.407 6.44702 6.19608 6.44702C4.98516 6.44702 4 7.43218 4 8.6431V20.8028C4 22.4875 4.59395 24.128 5.67241 25.4222L9.76547 30.3338C10.0937 30.7277 10.2745 31.227 10.2745 31.7398V35.1216C10.2745 35.6414 10.6959 36.0628 11.2156 36.0628H19.0588V27.638C19.0589 25.7108 18.3084 23.8987 16.9456 22.5358Z" fill="#E40137"/>
<path d="M26.6486 5.33714C24.8221 3.51063 21.8745 3.47147 19.9999 5.21974C18.1253 3.47147 15.1777 3.51063 13.3511 5.33714C11.4845 7.20369 11.4845 10.2409 13.3511 12.1074L19.3343 18.0906C19.7019 18.4582 20.2978 18.4582 20.6653 18.0906L26.6485 12.1074C28.5151 10.2409 28.5151 7.20369 26.6486 5.33714Z" fill="#E40137"/>
</svg>
