<svg width="11" height="14" viewBox="0 0 11 14" fill="none" xmlns="http://www.w3.org/2000/svg">
<path fill-rule="evenodd" clip-rule="evenodd" d="M9.35 4.08343C9.35 1.82818 7.62625 0 5.49995 0C3.37366 0 1.6499 1.82812 1.6499 4.08343V7.58342H2.74997V4.08343C2.74997 2.47259 3.98112 1.16668 5.49989 1.16668C7.01867 1.16668 8.24982 2.47259 8.24982 4.08343V7.58342H9.34988L9.35 4.08343Z" fill="#ACACAC"/>
<path fill-rule="evenodd" clip-rule="evenodd" d="M0 7.0034V12.83C0 13.4762 0.49411 14 1.095 14H9.905C10.5097 14 11 13.4767 11 12.83V7.0034C11 6.35715 10.5059 5.83337 9.905 5.83337H1.095C0.490309 5.83337 0 6.35656 0 7.0034Z" fill="#ACACAC"/>
</svg>
