<svg width="343" height="42" viewBox="0 0 343 42" fill="none" xmlns="http://www.w3.org/2000/svg">
<path d="M178 22.7514L184.307 8.24862H187.541L193.868 22.7514H190.432L185.257 9.94751H186.551L181.356 22.7514H178ZM181.153 19.6436L182.023 17.0953H189.3L190.189 19.6436H181.153Z" fill="#2361A9"/>
<path d="M201.971 23C200.853 23 199.822 22.8204 198.878 22.4613C197.948 22.0884 197.133 21.5635 196.432 20.8867C195.745 20.2099 195.206 19.4157 194.815 18.5041C194.438 17.5925 194.249 16.5912 194.249 15.5C194.249 14.4088 194.438 13.4075 194.815 12.4959C195.206 11.5843 195.752 10.7901 196.453 10.1133C197.153 9.43646 197.975 8.91851 198.919 8.55939C199.862 8.18646 200.9 8 202.032 8C203.285 8 204.41 8.21409 205.407 8.64226C206.418 9.07044 207.267 9.69199 207.954 10.5069L205.852 12.4959C205.34 11.9434 204.781 11.5359 204.174 11.2735C203.568 10.9972 202.908 10.8591 202.193 10.8591C201.506 10.8591 200.88 10.9696 200.314 11.1906C199.748 11.4116 199.256 11.7293 198.838 12.1436C198.434 12.558 198.117 13.0483 197.888 13.6146C197.672 14.1809 197.564 14.8094 197.564 15.5C197.564 16.1768 197.672 16.7983 197.888 17.3646C198.117 17.9309 198.434 18.4282 198.838 18.8564C199.256 19.2707 199.741 19.5884 200.293 19.8094C200.859 20.0304 201.479 20.1409 202.153 20.1409C202.8 20.1409 203.427 20.0373 204.033 19.8301C204.653 19.6091 205.253 19.2431 205.832 18.732L207.692 21.1561C206.924 21.75 206.027 22.2058 205.003 22.5235C203.992 22.8412 202.982 23 201.971 23ZM204.7 20.721V15.2721H207.692V21.1561L204.7 20.721Z" fill="#2361A9"/>
<path d="M213.745 14.0912H220.558V16.7017H213.745V14.0912ZM213.988 20.058H221.69V22.7514H210.734V8.24862H221.427V10.942H213.988V20.058Z" fill="#2361A9"/>
<path d="M224.295 22.7514V8.24862H227.004L235.352 18.6906H234.038V8.24862H237.273V22.7514H234.584L226.216 12.3094H227.529V22.7514H224.295Z" fill="#2361A9"/>
<path d="M243.551 22.7514V10.9834H239.024V8.24862H251.354V10.9834H246.826V22.7514H243.551Z" fill="#2361A9"/>
<path d="M258.841 22.7514V8.24862H264.966C266.232 8.24862 267.324 8.46271 268.24 8.89088C269.157 9.30525 269.864 9.90608 270.363 10.6934C270.861 11.4807 271.111 12.4199 271.111 13.511C271.111 14.5884 270.861 15.5207 270.363 16.308C269.864 17.0953 269.157 17.703 268.24 18.1312C267.324 18.5456 266.232 18.7528 264.966 18.7528H260.66L262.115 17.2403V22.7514H258.841ZM262.115 17.6133L260.66 16.018H264.784C265.794 16.018 266.549 15.797 267.048 15.355C267.546 14.913 267.796 14.2983 267.796 13.511C267.796 12.7099 267.546 12.0884 267.048 11.6464C266.549 11.2044 265.794 10.9834 264.784 10.9834H260.66L262.115 9.38812V17.6133Z" fill="#2361A9"/>
<path d="M280.519 23C279.4 23 278.363 22.8135 277.406 22.4406C276.463 22.0677 275.64 21.5428 274.94 20.866C274.252 20.1892 273.713 19.395 273.323 18.4834C272.945 17.5718 272.757 16.5773 272.757 15.5C272.757 14.4227 272.945 13.4282 273.323 12.5166C273.713 11.605 274.259 10.8108 274.96 10.134C275.661 9.45718 276.483 8.93232 277.426 8.55939C278.369 8.18646 279.394 8 280.499 8C281.617 8 282.641 8.18646 283.571 8.55939C284.514 8.93232 285.33 9.45718 286.017 10.134C286.718 10.8108 287.264 11.605 287.654 12.5166C288.045 13.4144 288.241 14.4088 288.241 15.5C288.241 16.5773 288.045 17.5787 287.654 18.5041C287.264 19.4157 286.718 20.2099 286.017 20.8867C285.33 21.5497 284.514 22.0677 283.571 22.4406C282.641 22.8135 281.624 23 280.519 23ZM280.499 20.1409C281.132 20.1409 281.711 20.0304 282.237 19.8094C282.776 19.5884 283.248 19.2707 283.652 18.8564C284.056 18.442 284.366 17.9517 284.582 17.3854C284.811 16.8191 284.926 16.1906 284.926 15.5C284.926 14.8094 284.811 14.1809 284.582 13.6146C284.366 13.0483 284.056 12.558 283.652 12.1436C283.261 11.7293 282.796 11.4116 282.257 11.1906C281.718 10.9696 281.132 10.8591 280.499 10.8591C279.865 10.8591 279.279 10.9696 278.74 11.1906C278.214 11.4116 277.749 11.7293 277.345 12.1436C276.941 12.558 276.624 13.0483 276.395 13.6146C276.18 14.1809 276.072 14.8094 276.072 15.5C276.072 16.1768 276.18 16.8052 276.395 17.3854C276.624 17.9517 276.934 18.442 277.325 18.8564C277.729 19.2707 278.201 19.5884 278.74 19.8094C279.279 20.0304 279.865 20.1409 280.499 20.1409Z" fill="#2361A9"/>
<path d="M290.702 22.7514V8.24862H296.827C298.093 8.24862 299.185 8.46271 300.101 8.89088C301.018 9.30525 301.725 9.90608 302.224 10.6934C302.722 11.4807 302.972 12.4199 302.972 13.511C302.972 14.5884 302.722 15.5207 302.224 16.308C301.725 17.0815 301.018 17.6754 300.101 18.0898C299.185 18.5041 298.093 18.7113 296.827 18.7113H292.521L293.976 17.2403V22.7514H290.702ZM299.697 22.7514L296.16 17.4889H299.657L303.234 22.7514H299.697ZM293.976 17.6133L292.521 16.0387H296.645C297.655 16.0387 298.41 15.8177 298.909 15.3757C299.407 14.9199 299.657 14.2983 299.657 13.511C299.657 12.7099 299.407 12.0884 298.909 11.6464C298.41 11.2044 297.655 10.9834 296.645 10.9834H292.521L293.976 9.38812V17.6133Z" fill="#2361A9"/>
<path d="M308.3 22.7514V10.9834H303.772V8.24862H316.102V10.9834H311.574V22.7514H308.3Z" fill="#2361A9"/>
<path d="M315.294 22.7514L321.601 8.24862H324.835L331.162 22.7514H327.726L322.551 9.94751H323.845L318.65 22.7514H315.294ZM318.447 19.6436L319.317 17.0953H326.594L327.483 19.6436H318.447Z" fill="#2361A9"/>
<path d="M332.63 22.7514V8.24862H335.905V20.0166H343V22.7514H332.63Z" fill="#2361A9"/>
<path d="M178 41.9135V31.8218H179.219L186.1 40.1114H185.461V31.8218H186.947V41.9135H185.729L178.847 33.6239H179.486V41.9135H178Z" fill="#2361A9"/>
<path d="M193.524 42C192.732 42 192.028 41.8318 191.414 41.4954C190.8 41.159 190.314 40.6977 189.957 40.1114C189.601 39.5155 189.422 38.8427 189.422 38.0931C189.422 37.3338 189.601 36.661 189.957 36.0747C190.314 35.4884 190.8 35.0319 191.414 34.7051C192.028 34.3687 192.732 34.2005 193.524 34.2005C194.307 34.2005 195.006 34.3687 195.62 34.7051C196.244 35.0319 196.73 35.4884 197.077 36.0747C197.433 36.6514 197.612 37.3242 197.612 38.0931C197.612 38.8523 197.433 39.5251 197.077 40.1114C196.73 40.6977 196.244 41.159 195.62 41.4954C195.006 41.8318 194.307 42 193.524 42ZM193.524 40.789C194.03 40.789 194.481 40.6785 194.877 40.4574C195.283 40.2363 195.6 39.924 195.828 39.5203C196.056 39.107 196.17 38.6313 196.17 38.0931C196.17 37.5452 196.056 37.0743 195.828 36.6802C195.6 36.2765 195.283 35.9642 194.877 35.7431C194.481 35.5221 194.03 35.4115 193.524 35.4115C193.019 35.4115 192.568 35.5221 192.172 35.7431C191.776 35.9642 191.459 36.2765 191.221 36.6802C190.983 37.0743 190.864 37.5452 190.864 38.0931C190.864 38.6313 190.983 39.107 191.221 39.5203C191.459 39.924 191.776 40.2363 192.172 40.4574C192.568 40.6785 193.019 40.789 193.524 40.789Z" fill="#2361A9"/>
<path d="M199.882 41.9135V34.2726H201.25V36.3486L201.116 35.8296C201.334 35.301 201.7 34.8973 202.216 34.6186C202.731 34.3399 203.365 34.2005 204.118 34.2005V35.5413C204.059 35.5317 203.999 35.5269 203.94 35.5269C203.89 35.5269 203.841 35.5269 203.791 35.5269C203.028 35.5269 202.424 35.7479 201.978 36.19C201.532 36.6322 201.309 37.2713 201.309 38.1075V41.9135H199.882Z" fill="#2361A9"/>
<path d="M209.198 42C208.406 42 207.791 41.7934 207.355 41.3801C206.919 40.9668 206.701 40.3757 206.701 39.6068V32.6003H208.128V39.5491C208.128 39.9624 208.232 40.2796 208.44 40.5007C208.658 40.7217 208.965 40.8322 209.362 40.8322C209.808 40.8322 210.179 40.7121 210.476 40.4718L210.922 41.4666C210.704 41.6492 210.442 41.7837 210.135 41.8702C209.837 41.9567 209.525 42 209.198 42ZM205.364 35.4115V34.2726H210.387V35.4115H205.364Z" fill="#2361A9"/>
<path d="M217.151 34.2005C217.795 34.2005 218.359 34.3207 218.845 34.5609C219.34 34.8012 219.727 35.1664 220.004 35.6566C220.282 36.1468 220.42 36.7667 220.42 37.5164V41.9135H218.994V37.675C218.994 36.9349 218.805 36.3775 218.429 36.0026C218.062 35.6278 217.542 35.4404 216.868 35.4404C216.363 35.4404 215.922 35.5365 215.545 35.7287C215.169 35.9209 214.877 36.2045 214.669 36.5793C214.47 36.9541 214.371 37.4203 214.371 37.9777V41.9135H212.945V31.2163H214.371V36.3342L214.089 35.7864C214.347 35.2866 214.743 34.8973 215.278 34.6186C215.813 34.3399 216.437 34.2005 217.151 34.2005Z" fill="#2361A9"/>
<path d="M226.28 41.9135L230.991 31.8218H232.462L237.189 41.9135H235.628L231.422 32.6291H232.017L227.81 41.9135H226.28ZM228.286 39.3906L228.687 38.2372H234.543L234.974 39.3906H228.286Z" fill="#2361A9"/>
<path d="M248.684 34.2005C249.318 34.2005 249.878 34.3207 250.363 34.5609C250.849 34.8012 251.225 35.1664 251.493 35.6566C251.77 36.1468 251.909 36.7667 251.909 37.5164V41.9135H250.482V37.675C250.482 36.9349 250.304 36.3775 249.947 36.0026C249.591 35.6278 249.09 35.4404 248.446 35.4404C247.971 35.4404 247.554 35.5365 247.198 35.7287C246.841 35.9209 246.564 36.2045 246.365 36.5793C246.177 36.9541 246.083 37.4203 246.083 37.9777V41.9135H244.656V37.675C244.656 36.9349 244.478 36.3775 244.121 36.0026C243.774 35.6278 243.274 35.4404 242.62 35.4404C242.154 35.4404 241.743 35.5365 241.386 35.7287C241.03 35.9209 240.752 36.2045 240.554 36.5793C240.356 36.9541 240.257 37.4203 240.257 37.9777V41.9135H238.83V34.2726H240.197V36.3054L239.974 35.7864C240.222 35.2866 240.604 34.8973 241.119 34.6186C241.634 34.3399 242.234 34.2005 242.917 34.2005C243.67 34.2005 244.319 34.3831 244.864 34.7484C245.409 35.104 245.766 35.647 245.934 36.3775L245.355 36.1468C245.592 35.5605 246.009 35.0896 246.603 34.7339C247.198 34.3783 247.891 34.2005 248.684 34.2005Z" fill="#2361A9"/>
<path d="M258.339 42C257.497 42 256.754 41.8318 256.11 41.4954C255.476 41.159 254.98 40.6977 254.624 40.1114C254.277 39.5251 254.103 38.8523 254.103 38.0931C254.103 37.3338 254.272 36.661 254.609 36.0747C254.956 35.4884 255.426 35.0319 256.021 34.7051C256.625 34.3687 257.304 34.2005 258.057 34.2005C258.82 34.2005 259.494 34.3639 260.078 34.6907C260.663 35.0175 261.119 35.4788 261.446 36.0747C261.783 36.661 261.951 37.3482 261.951 38.1363C261.951 38.194 261.946 38.2613 261.936 38.3381C261.936 38.415 261.931 38.4871 261.921 38.5544H255.218V37.5596H261.178L260.598 37.9056C260.608 37.4155 260.504 36.9782 260.286 36.5937C260.068 36.2093 259.766 35.9113 259.38 35.6999C259.003 35.4788 258.562 35.3683 258.057 35.3683C257.562 35.3683 257.121 35.4788 256.734 35.6999C256.348 35.9113 256.046 36.2141 255.828 36.6081C255.61 36.9926 255.501 37.4347 255.501 37.9345V38.1651C255.501 38.6745 255.619 39.1311 255.857 39.5347C256.105 39.9288 256.447 40.2363 256.883 40.4574C257.319 40.6785 257.819 40.789 258.384 40.789C258.85 40.789 259.271 40.7121 259.647 40.5583C260.034 40.4045 260.371 40.1739 260.658 39.8663L261.446 40.7602C261.089 41.1638 260.643 41.4714 260.108 41.6828C259.583 41.8943 258.993 42 258.339 42Z" fill="#2361A9"/>
<path d="M264.229 41.9135V34.2726H265.597V36.3486L265.463 35.8296C265.681 35.301 266.048 34.8973 266.563 34.6186C267.078 34.3399 267.712 34.2005 268.465 34.2005V35.5413C268.406 35.5317 268.346 35.5269 268.287 35.5269C268.237 35.5269 268.188 35.5269 268.138 35.5269C267.375 35.5269 266.771 35.7479 266.325 36.19C265.879 36.6322 265.656 37.2713 265.656 38.1075V41.9135H264.229Z" fill="#2361A9"/>
<path d="M270.521 41.9135V34.2726H271.948V41.9135H270.521ZM271.235 32.8021C270.957 32.8021 270.724 32.7156 270.536 32.5426C270.358 32.3696 270.269 32.1581 270.269 31.9083C270.269 31.6488 270.358 31.4325 270.536 31.2595C270.724 31.0865 270.957 31 271.235 31C271.512 31 271.74 31.0865 271.918 31.2595C272.107 31.4229 272.201 31.6295 272.201 31.8794C272.201 32.1389 272.111 32.36 271.933 32.5426C271.755 32.7156 271.522 32.8021 271.235 32.8021Z" fill="#2361A9"/>
<path d="M278.403 42C277.6 42 276.882 41.8318 276.248 41.4954C275.623 41.159 275.133 40.6977 274.776 40.1114C274.42 39.5251 274.241 38.8523 274.241 38.0931C274.241 37.3338 274.42 36.661 274.776 36.0747C275.133 35.4884 275.623 35.0319 276.248 34.7051C276.882 34.3687 277.6 34.2005 278.403 34.2005C279.116 34.2005 279.75 34.3399 280.305 34.6186C280.87 34.8877 281.306 35.2914 281.613 35.8296L280.528 36.5072C280.271 36.1324 279.953 35.8585 279.577 35.6855C279.21 35.5028 278.814 35.4115 278.388 35.4115C277.873 35.4115 277.412 35.5221 277.006 35.7431C276.599 35.9642 276.277 36.2765 276.04 36.6802C275.802 37.0743 275.683 37.5452 275.683 38.0931C275.683 38.6409 275.802 39.1166 276.04 39.5203C276.277 39.924 276.599 40.2363 277.006 40.4574C277.412 40.6785 277.873 40.789 278.388 40.789C278.814 40.789 279.21 40.7025 279.577 40.5295C279.953 40.3469 280.271 40.0682 280.528 39.6933L281.613 40.3565C281.306 40.8851 280.87 41.2936 280.305 41.5819C279.75 41.8606 279.116 42 278.403 42Z" fill="#2361A9"/>
<path d="M288.647 41.9135V40.2988L288.573 39.9961V37.2425C288.573 36.6562 288.395 36.2045 288.038 35.8873C287.691 35.5605 287.166 35.3971 286.463 35.3971C285.997 35.3971 285.541 35.474 285.095 35.6278C284.649 35.772 284.273 35.969 283.966 36.2189L283.371 35.1809C283.777 34.8637 284.263 34.6234 284.828 34.46C285.402 34.287 286.002 34.2005 286.626 34.2005C287.706 34.2005 288.539 34.4552 289.123 34.9646C289.708 35.474 290 36.2525 290 37.3001V41.9135H288.647ZM286.061 42C285.477 42 284.962 41.9039 284.516 41.7117C284.08 41.5194 283.743 41.2551 283.505 40.9187C283.267 40.5727 283.148 40.1835 283.148 39.751C283.148 39.3377 283.247 38.9629 283.446 38.6265C283.654 38.2901 283.986 38.021 284.441 37.8191C284.907 37.6173 285.531 37.5164 286.314 37.5164H288.811V38.5111H286.374C285.66 38.5111 285.18 38.6265 284.932 38.8571C284.684 39.0878 284.56 39.3665 284.56 39.6933C284.56 40.0682 284.714 40.3709 285.021 40.6016C285.328 40.8226 285.754 40.9332 286.299 40.9332C286.834 40.9332 287.3 40.8178 287.696 40.5872C288.103 40.3565 288.395 40.0201 288.573 39.578L288.856 40.5295C288.667 40.9812 288.335 41.3416 287.86 41.6107C287.384 41.8702 286.785 42 286.061 42Z" fill="#2361A9"/>
<g clip-path="url(#clip0_1_3753)">
<path d="M28.128 41.3239L36.128 9.07934L38.272 42H47.248L44.512 0.0160981H30.496L23.632 28.2361L16.752 0.0160981H2.736L0 42H8.976L11.12 9.07934L19.12 41.3239H28.128ZM148.08 15.921H153.488L155.36 12.4599L153.504 9.06324H148.08V15.921ZM132.608 15.921H137.344V29.524C137.344 36.6715 139.136 42 146.976 42C149.808 42 152.16 41.2756 153.488 40.7443V33.1138C148.8 33.9992 146.512 34.289 146.512 28.0107V0H137.344V9.07934H133.328L132.608 15.921ZM89.536 28.2522C90.16 36.1725 102.416 34.788 107.712 33.1138L109.024 39.9555C96.624 44.7206 80.08 41.6136 80.08 25.3867C80.08 3.76696 110.8 1.41664 110.8 24.2599C110.8 25.9824 110.608 27.5117 110.48 28.2361H89.536V28.2522ZM101.504 21.3461C101.504 12.4117 89.52 12.2829 89.6 21.3461H101.504ZM121.12 17.7723C121.12 13.6512 128.736 14.9874 131.04 15.921L131.744 9.07934C124.032 6.68072 112.064 8.46761 112.08 18.6899C111.92 28.7673 126.672 27.3829 126.672 32.1801C126.672 37.235 115.12 34.6432 112.608 33.1138L111.296 39.9716C119.872 43.7869 136.176 42.9337 135.744 31.4879C135.6 20.3641 121.12 22.3281 121.12 17.7723Z" fill="#2361A9"/>
<path d="M57.2324 28.2523C57.8564 36.1725 70.1124 34.7881 75.4083 33.1139L76.7204 39.9556C64.3204 44.7206 47.7764 41.6137 47.7764 25.3868C47.7764 3.767 78.4964 1.41668 78.4964 24.2599C78.4964 25.9824 78.3044 27.5117 78.1764 28.2362H57.2324V28.2523ZM69.2004 21.3462C69.2004 12.4117 57.2164 12.2829 57.2964 21.3462H69.2004Z" fill="#E40137"/>
<path d="M158.384 0L165.2 12.4599L158.384 25.0004H151.568L158.384 12.4599L151.568 0H158.384Z" fill="#E40137"/>
</g>
<defs>
<clipPath id="clip0_1_3753">
<rect width="165.2" height="42" fill="white"/>
</clipPath>
</defs>
</svg>
