<svg width="63" height="16" viewBox="0 0 63 16" fill="none" xmlns="http://www.w3.org/2000/svg">
<g clip-path="url(#clip0_533_203)">
<path d="M10.7154 15.7424L13.763 3.4588L14.5798 16H17.9992L16.957 0.00613262H11.6175L9.00267 10.7566L6.38171 0.00613262H1.04229L0 16H3.41943L4.23619 3.4588L7.28381 15.7424H10.7154ZM56.4114 6.06516H58.4716L59.1848 4.74665L58.4777 3.45266H56.4114V6.06516ZM50.5173 6.06516H52.3215V11.2472C52.3215 13.9701 53.0042 16 55.9909 16C57.0697 16 57.9657 15.724 58.4716 15.5217V12.6148C56.6857 12.9521 55.8141 13.0625 55.8141 10.6708V0H52.3215V3.4588H50.7916L50.5173 6.06516ZM34.1089 10.7627C34.3467 13.78 39.0156 13.2526 41.0331 12.6148L41.533 15.2212C36.8091 17.0364 30.5067 15.8528 30.5067 9.67114C30.5067 1.43503 42.2095 0.539671 42.2095 9.24185C42.2095 9.89805 42.1364 10.4806 42.0876 10.7566H34.1089V10.7627ZM38.6682 8.13185C38.6682 4.72825 34.1029 4.67919 34.1333 8.13185H38.6682ZM46.1409 6.77041C46.1409 5.20046 49.0423 5.70947 49.92 6.06516L50.1882 3.4588C47.2503 2.54504 42.691 3.22576 42.6971 7.11997C42.6362 10.959 48.256 10.4316 48.256 12.2591C48.256 14.1847 43.8552 13.1974 42.8983 12.6148L42.3985 15.2273C45.6655 16.6807 51.8766 16.3557 51.712 11.9954C51.6571 7.75776 46.1409 8.50594 46.1409 6.77041Z" fill="#2361A9"/>
<path d="M21.8028 10.7628C22.0406 13.78 26.7095 13.2526 28.727 12.6148L29.2268 15.2212C24.503 17.0364 18.2006 15.8528 18.2006 9.67117C18.2006 1.43506 29.9034 0.539698 29.9034 9.24188C29.9034 9.89807 29.8303 10.4807 29.7815 10.7566H21.8028V10.7628ZM26.3621 8.13188C26.3621 4.72828 21.7968 4.67922 21.8272 8.13188H26.3621Z" fill="#E40137"/>
<path d="M60.3368 0L62.9334 4.74665L60.3368 9.52396H57.7402L60.3368 4.74665L57.7402 0H60.3368Z" fill="#E40137"/>
</g>
<defs>
<clipPath id="clip0_533_203">
<rect width="62.9333" height="16" fill="white"/>
</clipPath>
</defs>
</svg>
