<svg width="40" height="40" viewBox="0 0 40 40" fill="none" xmlns="http://www.w3.org/2000/svg">
<path d="M25.1583 7.18168C23.8485 5.77477 22.0192 5 20 5C17.9701 5 16.1346 5.77008 14.8309 7.16829C13.5131 8.5819 12.871 10.5031 13.0217 12.5776C13.3206 16.6705 16.451 19.9999 20 19.9999C23.549 19.9999 26.674 16.6711 26.9776 12.579C27.1304 10.5232 26.4842 8.60601 25.1583 7.18168Z" fill="#E40137"/>
<path d="M31.8458 34.9998H8.15417C7.84407 35.0038 7.53697 34.939 7.25521 34.8101C6.97345 34.6812 6.72413 34.4914 6.52537 34.2545C6.08788 33.7342 5.91154 33.0237 6.04211 32.3052C6.61018 29.1699 8.38301 26.5363 11.1695 24.6874C13.645 23.0461 16.7808 22.1428 20 22.1428C23.2192 22.1428 26.355 23.0468 28.8305 24.6874C31.617 26.5356 33.3898 29.1693 33.9579 32.3045C34.0885 33.0231 33.9121 33.7335 33.4746 34.2538C33.2759 34.4908 33.0266 34.6807 32.7449 34.8098C32.4631 34.9388 32.156 35.0038 31.8458 34.9998Z" fill="#E40137"/>
</svg>
