<svg width="30" height="30" viewBox="0 0 30 30" fill="none" xmlns="http://www.w3.org/2000/svg">
<g clip-path="url(#clip0_11_172)">
<path d="M15 0C6.72909 0 0 6.72909 0 15C0 23.2709 6.72909 30 15 30C23.2709 30 30 23.2709 30 15C30 6.72909 23.2709 0 15 0ZM15.1442 6.92308C16.1712 6.92308 17.1751 7.2276 18.0289 7.79814C18.8828 8.36868 19.5483 9.1796 19.9413 10.1284C20.3343 11.0771 20.4371 12.1211 20.2368 13.1284C20.0364 14.1356 19.5419 15.0607 18.8157 15.7869C18.0896 16.5131 17.1644 17.0076 16.1572 17.2079C15.15 17.4083 14.106 17.3054 13.1572 16.9125C12.2085 16.5195 11.3975 15.8539 10.827 15.0001C10.2564 14.1462 9.95192 13.1423 9.95192 12.1154C9.95192 10.7383 10.499 9.41762 11.4727 8.44387C12.4465 7.47012 13.7671 6.92308 15.1442 6.92308ZM15 27.6923C13.2494 27.693 11.5176 27.3307 9.91414 26.6281C8.31067 25.9256 6.87034 24.8981 5.68413 23.6106C6.32163 20.3091 12.0476 19.6154 15 19.6154C17.9524 19.6154 23.6784 20.3091 24.3159 23.6099C23.1298 24.8976 21.6895 25.9253 20.086 26.628C18.4825 27.3307 16.7507 27.6931 15 27.6923Z" fill="#2361A9"/>
</g>
<defs>
<clipPath id="clip0_11_172">
<rect width="30" height="30" fill="white"/>
</clipPath>
</defs>
</svg>
