<svg width="7" height="12" viewBox="0 0 7 12" fill="none" xmlns="http://www.w3.org/2000/svg">
<path d="M0.00102351 6.04362C0.0105445 6.32937 0.125615 6.60176 0.324569 6.8091L4.97249 11.6413C5.26419 11.9422 5.69558 12.0659 6.10417 11.966C6.51275 11.8659 6.83664 11.5575 6.95351 11.1567C7.07055 10.7559 6.96303 10.3237 6.67133 10.0228L2.81008 6L6.67133 1.9772C6.96303 1.67631 7.07055 1.24409 6.95351 0.843287C6.83663 0.442484 6.51277 0.134129 6.10418 0.0340227C5.6956 -0.0658919 5.26421 0.0577811 4.97249 0.35867L0.324569 5.1909C0.104439 5.42003 -0.0122726 5.7276 0.00102351 6.04362Z" fill="#2361A9"/>
</svg>
