<svg width="24" height="26" viewBox="0 0 24 26" fill="none" xmlns="http://www.w3.org/2000/svg">
<path d="M20.8 3.2825L19.3333 2.53174L17.8667 3.2825L16.4 2.53174L14.9333 3.2825L13.4667 2.53174L12 3.2825L10.5333 2.53174L9.06667 3.2825L6.86667 2.53174V14.5462H17.1333V20.9253C17.1333 22.3766 18.649 23.5529 20.0667 23.5529H20.6167C22.0343 23.5529 23 22.3766 23 20.9253V2.53174L20.8 3.2825ZM12.7563 12.2916L12.7333 10.7901H20.0438L20.0667 12.2916H12.7563ZM9.82292 8.5378L9.8 7.03628H20.0438L20.0667 8.5378H9.82292Z" fill="#2361A9"/>
<path d="M15.6667 20.9253V16.0454H1V17.5469C1 19.9188 1.26492 20.9075 1.66275 21.6587C2.33788 22.9336 3.56025 23.5529 5.4 23.5529H17.1333C17.1333 23.5529 15.6667 22.6145 15.6667 20.9253Z" fill="#2361A9"/>
</svg>
