<svg width="24" height="24" viewBox="0 0 24 24" fill="none" xmlns="http://www.w3.org/2000/svg">
<path d="M12 1C5.93466 1 1 5.93519 1 12C1 18.0743 5.92567 23 12 23C18.0653 23 23 18.0653 23 12C23 5.92514 18.0749 1 12 1ZM12 17.5529C10.6816 17.5529 9.41714 17.0291 8.48486 16.0969C7.55259 15.1646 7.02885 13.9002 7.02885 12.5817C7.02885 11.2633 7.55259 9.99887 8.48486 9.06659C9.41714 8.13432 10.6816 7.61058 12 7.61058H12.2226L11.4764 6.8649C11.3376 6.72605 11.2596 6.53772 11.2596 6.34135C11.2596 6.14497 11.3376 5.95665 11.4764 5.81779C11.6153 5.67893 11.8036 5.60092 12 5.60092C12.1964 5.60092 12.3847 5.67893 12.5236 5.81779L14.6389 7.93317C14.7077 8.00193 14.7622 8.08355 14.7995 8.17338C14.8367 8.26321 14.8558 8.3595 14.8558 8.45673C14.8558 8.55397 14.8367 8.65025 14.7995 8.74008C14.7622 8.82991 14.7077 8.91154 14.6389 8.98029L12.5236 11.0957C12.3847 11.2345 12.1964 11.3125 12 11.3125C11.8036 11.3125 11.6153 11.2345 11.4764 11.0957C11.3376 10.9568 11.2596 10.7685 11.2596 10.5721C11.2596 10.3757 11.3376 10.1874 11.4764 10.0486L12.4284 9.09663C12.3025 9.09135 12.1587 9.09135 12 9.09135C11.3097 9.09135 10.6348 9.29605 10.0608 9.67958C9.48686 10.0631 9.03948 10.6082 8.77531 11.246C8.51113 11.8838 8.44201 12.5856 8.57668 13.2627C8.71136 13.9397 9.04379 14.5617 9.53193 15.0498C10.0201 15.5379 10.642 15.8704 11.3191 16.005C11.9961 16.1397 12.6979 16.0706 13.3357 15.8064C13.9735 15.5422 14.5186 15.0949 14.9021 14.5209C15.2857 13.9469 15.4904 13.2721 15.4904 12.5817C15.4904 12.3854 15.5684 12.197 15.7072 12.0582C15.8461 11.9194 16.0344 11.8413 16.2308 11.8413C16.4271 11.8413 16.6155 11.9194 16.7543 12.0582C16.8932 12.197 16.9712 12.3854 16.9712 12.5817C16.9696 13.8997 16.4454 15.1632 15.5134 16.0952C14.5815 17.0271 13.318 17.5513 12 17.5529Z" fill="#2361A9"/>
</svg>
