<svg width="33" height="30" viewBox="0 0 33 30" fill="none" xmlns="http://www.w3.org/2000/svg">
<path fill-rule="evenodd" clip-rule="evenodd" d="M20.3361 25.7084C20.0194 24.9273 19.3797 24.2994 18.5881 23.9688C18.0379 23.7432 17.476 23.7165 16.8907 23.7165C16.7541 23.7165 16.6176 23.716 16.481 23.7156H16.4805C16.2075 23.7148 15.9345 23.7139 15.6615 23.7165C14.7991 23.7203 13.9407 24.053 13.3397 24.6725C12.6139 25.422 12.3368 26.4086 12.4969 27.4181C12.6374 28.3053 13.25 29.116 14.0383 29.5634C14.8713 30.0322 15.8563 30.0117 16.8032 29.9919C16.9835 29.9882 17.1623 29.9844 17.3384 29.9841L17.3629 29.9841C17.378 29.9841 17.3931 29.9838 17.4082 29.9831C18.4584 29.9544 19.3735 29.4521 19.989 28.6265C20.1341 28.4325 20.2514 28.2196 20.3409 27.9953H24.1092C24.5619 27.9953 25.0184 27.9723 25.4515 27.8308C26.3569 27.5364 27.1607 26.9245 27.6094 26.0909C27.9021 25.5402 28.0543 24.9475 28.0582 24.328V23.8997V21.9745C28.2037 21.9767 28.3497 21.9743 28.494 21.9719H28.494H28.4941H28.4942C28.597 21.9702 28.6989 21.9685 28.7993 21.9685H30.5397H30.8036C30.826 21.9692 30.8485 21.9692 30.8713 21.9685L30.8738 21.9685C30.9101 21.9684 30.9463 21.9665 30.9822 21.9628C32.1256 21.8763 32.9904 20.9722 32.998 19.8347V19.0432V15.7583V12.5538C32.998 12.4824 32.9984 12.411 32.9989 12.3396C32.9997 12.1969 33.0006 12.0541 32.998 11.9114C32.9746 10.7412 32.0341 9.82347 30.8401 9.81578C30.2001 9.81068 29.5584 9.81238 28.9172 9.81408H28.9171H28.917H28.9169C28.5965 9.81493 28.2762 9.81578 27.9564 9.81578C27.9522 9.81578 27.948 9.81579 27.9438 9.81581C27.9064 9.51487 27.8573 9.21411 27.7928 8.91334C27.149 5.93062 25.1862 3.29201 22.56 1.6859C19.8636 0.0377739 16.4882 -0.428765 13.4289 0.40488C10.4359 1.21936 7.82146 3.25376 6.34644 5.9344C5.67671 7.14806 5.24789 8.4556 5.05498 9.81525C4.43167 9.81083 3.8084 9.81247 3.18618 9.81411L3.18533 9.81411C2.8626 9.81496 2.54015 9.8158 2.21813 9.8158C1.00454 9.8158 0.0329159 10.703 0.00173431 11.9037C-0.000870094 12.0288 1.96348e-06 12.1555 0.000870094 12.2817C0.00130269 12.3446 0.00173431 12.4073 0.00173431 12.4696V18.9399V19.8041C0.00563651 20.7754 0.645588 21.7161 1.66014 21.9111C2.02242 21.9821 2.40105 21.9753 2.77435 21.9686H2.77437H2.77447H2.77457H2.77467H2.77477H2.77487C2.8839 21.9666 2.99248 21.9647 3.10006 21.9647H4.8443H5.04165C5.08429 21.9685 5.12778 21.9698 5.17203 21.9685C6.36999 21.9341 7.29088 21.0086 7.29873 19.8347V19.0431V15.7201V12.5538C7.29873 12.4824 7.29917 12.4111 7.2996 12.3397C7.30047 12.1969 7.30133 12.0541 7.29873 11.9114C7.29729 11.8495 7.29328 11.7883 7.2868 11.7279C7.28699 11.1819 7.29779 10.6424 7.36364 10.1002C7.48345 9.33802 7.69184 8.59363 7.9814 7.87674C8.17236 7.45041 8.38987 7.03452 8.63695 6.63801C8.77744 6.41622 8.92181 6.19825 9.0779 5.9841C9.09544 5.96118 9.11299 5.9373 9.13054 5.91342C9.13702 5.9046 9.1435 5.89578 9.14998 5.887C9.17439 5.85772 9.21079 5.81305 9.23139 5.78576C9.28725 5.71782 9.3437 5.6494 9.40178 5.58259C9.73346 5.19636 10.0925 4.83691 10.4788 4.50421C10.5763 4.42008 10.6739 4.33977 10.7715 4.25947C10.7949 4.24033 10.8183 4.22214 10.8418 4.20396C10.8467 4.20012 10.8517 4.19629 10.8566 4.19245C10.8632 4.18779 10.8712 4.18213 10.8807 4.17534C11.0953 4.01856 11.3139 3.86942 11.5363 3.73175C11.9964 3.44416 12.4801 3.19284 12.9779 2.98081C13.7079 2.69535 14.4659 2.49416 15.2419 2.37722C16.0765 2.27893 16.9173 2.27885 17.7519 2.37701C18.5293 2.49444 19.2885 2.6986 20.0197 2.98223C20.4548 3.16936 20.8792 3.38252 21.2838 3.62466C21.5101 3.76232 21.7325 3.90381 21.9511 4.05677C21.9745 4.07396 21.9988 4.09115 22.0232 4.10834C22.0322 4.11469 22.0412 4.12105 22.0501 4.1274C22.08 4.15131 22.1256 4.18699 22.1535 4.20718C22.2228 4.26193 22.2926 4.31725 22.3608 4.37417C22.7549 4.69921 23.1217 5.05102 23.4612 5.42961C23.547 5.52521 23.629 5.62082 23.7109 5.71642C23.7305 5.73939 23.749 5.76235 23.7676 5.78532C23.7715 5.79018 23.7754 5.79503 23.7793 5.79988C23.7841 5.80638 23.7899 5.8142 23.7968 5.82349C23.9568 6.03381 24.109 6.24796 24.2494 6.46593C24.5429 6.91685 24.7994 7.39083 25.0157 7.87873C25.3067 8.59328 25.5119 9.33514 25.6312 10.0947C25.7099 10.7464 25.7094 11.3983 25.709 12.053C25.7089 12.1039 25.7089 12.1548 25.7089 12.2057V15.2764V19.2534V22.7448C25.7089 22.9245 25.7093 23.1042 25.7097 23.2839C25.7106 23.6434 25.7115 24.0029 25.7089 24.3623C25.7089 24.4285 25.7061 24.4933 25.7014 24.5575C25.6789 24.6637 25.6497 24.7684 25.6134 24.8719C25.5654 24.9689 25.5123 25.0643 25.4513 25.1539L25.4513 25.154C25.4429 25.1654 25.4346 25.1769 25.4262 25.1887C25.4136 25.2024 25.4013 25.2164 25.3889 25.2304C25.3635 25.2591 25.3382 25.2877 25.3109 25.3145C25.2797 25.3451 25.245 25.3757 25.2103 25.4062C25.1981 25.417 25.1858 25.4278 25.1737 25.4386C25.1726 25.4393 25.1715 25.44 25.1704 25.4407C25.0727 25.5064 24.971 25.5622 24.8667 25.6125C24.7537 25.6505 24.638 25.6816 24.5208 25.7049C24.1379 25.7377 23.745 25.7277 23.3558 25.7178C23.1698 25.7131 22.9846 25.7084 22.8018 25.7084H20.3361ZM24.3626 25.7313C24.374 25.7297 24.3854 25.7281 24.3967 25.7265C24.3854 25.7282 24.374 25.7298 24.3626 25.7313ZM25.7323 24.3814C25.7306 24.3935 25.7288 24.4054 25.727 24.4174C25.7287 24.4055 25.7305 24.3935 25.7323 24.3814ZM25.6621 10.3052C25.656 10.2651 25.6505 10.2256 25.6452 10.1862C25.651 10.2258 25.6567 10.2655 25.6621 10.3052ZM22.0749 4.14512C22.0818 4.15009 22.0887 4.15505 22.0954 4.16002C22.1019 4.16506 22.1117 4.17134 22.1224 4.17819C22.1441 4.19212 22.1695 4.20838 22.1774 4.22121C22.18 4.22555 22.1698 4.21904 22.1535 4.20718C22.1486 4.20339 22.1438 4.1996 22.139 4.19581C22.1176 4.17887 22.0962 4.16199 22.0749 4.14512ZM22.0749 4.14512C22.0667 4.13921 22.0585 4.13331 22.0501 4.1274C22.0203 4.10355 22.0062 4.0914 22.0408 4.11796C22.0521 4.12701 22.0635 4.13606 22.0749 4.14512ZM17.5417 2.34742C17.5817 2.35264 17.6216 2.35808 17.6615 2.36375C17.6219 2.35858 17.5821 2.35328 17.5417 2.34742ZM15.454 2.34742C15.4131 2.35336 15.3728 2.35872 15.3326 2.36396C15.373 2.35822 15.4135 2.35271 15.454 2.34742ZM12.8123 3.04723C12.8268 3.04125 12.8414 3.03531 12.8559 3.02941L12.8123 3.04723ZM9.16807 5.86268C9.17313 5.85593 9.1782 5.84923 9.18326 5.84262C9.1884 5.83632 9.19481 5.8267 9.2018 5.81623C9.21602 5.7949 9.23261 5.77001 9.2457 5.76232C9.25013 5.75971 9.24348 5.76974 9.23139 5.78576C9.22751 5.79047 9.22364 5.79518 9.21977 5.79989C9.2025 5.8209 9.18527 5.84185 9.16807 5.86268ZM9.16807 5.86268C9.16204 5.87072 9.15601 5.87884 9.14998 5.887C9.12564 5.9162 9.11323 5.9301 9.14033 5.89616C9.14958 5.88504 9.15882 5.87388 9.16807 5.86268ZM7.33362 10.3052C7.33894 10.266 7.3445 10.2269 7.35028 10.1878C7.34501 10.2266 7.3396 10.2656 7.33362 10.3052Z" fill="#2361A9"/>
</svg>
