<svg width="30" height="30" viewBox="0 0 30 30" fill="none" xmlns="http://www.w3.org/2000/svg">
<path fill-rule="evenodd" clip-rule="evenodd" d="M6.23077 6.81818C5.86355 6.81818 5.51136 6.96185 5.2517 7.21758C4.99203 7.47331 4.84615 7.82016 4.84615 8.18182V21.8182C4.84615 22.1798 4.99203 22.5267 5.2517 22.7824C5.51136 23.0382 5.86355 23.1818 6.23077 23.1818H15.4615C15.8288 23.1818 16.1809 23.0382 16.4406 22.7824C16.7003 22.5267 16.8462 22.1798 16.8462 21.8182V19.5455C16.8462 19.0434 17.2594 18.6364 17.7692 18.6364C18.279 18.6364 18.6923 19.0434 18.6923 19.5455V21.8182C18.6923 22.6621 18.3519 23.4714 17.746 24.0681C17.1402 24.6648 16.3184 25 15.4615 25H6.23077C5.37392 25 4.55216 24.6648 3.94627 24.0681C3.34038 23.4714 3 22.6621 3 21.8182V8.18182C3 7.33795 3.34038 6.52864 3.94627 5.93193C4.55216 5.33523 5.37392 5 6.23077 5H15C15.8668 5 16.7556 5.33736 17.4318 5.85919C18.1046 6.3783 18.6923 7.18473 18.6923 8.18182V10.4545C18.6923 10.9566 18.279 11.3636 17.7692 11.3636C17.2594 11.3636 16.8462 10.9566 16.8462 10.4545V8.18182C16.8462 7.92379 16.6865 7.59386 16.2932 7.29038C15.9035 6.98963 15.4077 6.81818 15 6.81818H6.23077ZM20.8088 9.81172C21.1693 9.4567 21.7538 9.4567 22.1143 9.81172L26.7296 14.3572C27.0901 14.7122 27.0901 15.2878 26.7296 15.6428L22.1143 20.1883C21.7538 20.5433 21.1693 20.5433 20.8088 20.1883C20.4483 19.8333 20.4483 19.2577 20.8088 18.9026L23.8484 15.9091H10.3846C9.87481 15.9091 9.46154 15.5021 9.46154 15C9.46154 14.4979 9.87481 14.0909 10.3846 14.0909H23.8484L20.8088 11.0974C20.4483 10.7423 20.4483 10.1667 20.8088 9.81172Z" fill="#2361A9"/>
</svg>
