<svg width="24" height="24" viewBox="0 0 24 24" fill="none" xmlns="http://www.w3.org/2000/svg">
<path d="M20.9789 4.14286H15.75V1.78571C15.75 1.57733 15.671 1.37748 15.5303 1.23013C15.3897 1.08278 15.1989 1 15 1H9C8.80109 1 8.61032 1.08278 8.46967 1.23013C8.32902 1.37748 8.25 1.57733 8.25 1.78571V4.14286H3.02109L3 6.10714H4.54688L5.48859 21.5268C5.51243 21.9255 5.68035 22.2998 5.95821 22.5735C6.23607 22.8471 6.603 22.9997 6.98438 23H17.0156C17.3968 22.9999 17.7636 22.8479 18.0416 22.5747C18.3196 22.3015 18.4879 21.9277 18.5123 21.5292L19.4531 6.10714H21L20.9789 4.14286ZM8.25 19.8571L7.82812 7.28571H9.375L9.79688 19.8571H8.25ZM12.75 19.8571H11.25V7.28571H12.75V19.8571ZM13.875 4.14286H10.125V2.76786C10.125 2.71576 10.1448 2.6658 10.1799 2.62896C10.2151 2.59212 10.2628 2.57143 10.3125 2.57143H13.6875C13.7372 2.57143 13.7849 2.59212 13.8201 2.62896C13.8552 2.6658 13.875 2.71576 13.875 2.76786V4.14286ZM15.75 19.8571H14.2031L14.625 7.28571H16.1719L15.75 19.8571Z" fill="#2361A9"/>
</svg>
