<svg width="24" height="24" viewBox="0 0 24 24" fill="none" xmlns="http://www.w3.org/2000/svg">
<path fill-rule="evenodd" clip-rule="evenodd" d="M6.00016 4.87509H20.2502V2.41509C20.2502 2.30412 20.2256 2.19452 20.1781 2.09421C20.1306 1.9939 20.0615 1.90537 19.9756 1.83502C19.8898 1.76466 19.7894 1.71423 19.6818 1.68736C19.5741 1.66049 19.4618 1.65784 19.353 1.67962L2.19219 4.49996C2.19198 4.5 2.19177 4.50003 2.19156 4.50006C2.185 4.50109 2.17847 4.50216 2.17199 4.50328L2.10298 4.51462C2.01057 4.53302 1.92278 4.5686 1.84404 4.61918C1.60354 4.76361 1.46875 5.02777 1.46875 5.43756V12.1641L1.47672 12.1606V20.2501C1.47672 20.449 1.55573 20.6397 1.69638 20.7804C1.83704 20.921 2.0278 21.0001 2.22672 21.0001H21.7267C21.9256 21.0001 22.1164 20.921 22.257 20.7804C22.3977 20.6397 22.4767 20.449 22.4767 20.2501V6.75006C22.4767 6.55115 22.3977 6.36038 22.257 6.21973C22.1164 6.07908 21.9256 6.00006 21.7267 6.00006H6.00016V4.87509ZM17.2502 15.0001C16.9535 15.0001 16.6635 14.9121 16.4168 14.7473C16.1701 14.5824 15.9779 14.3482 15.8643 14.0741C15.7508 13.8 15.7211 13.4984 15.779 13.2074C15.8369 12.9165 15.9797 12.6492 16.1895 12.4394C16.3993 12.2296 16.6665 12.0868 16.9575 12.0289C17.2485 11.971 17.5501 12.0007 17.8242 12.1142C18.0983 12.2278 18.3325 12.42 18.4974 12.6667C18.6622 12.9134 18.7502 13.2034 18.7502 13.5001C18.7502 13.8979 18.5921 14.2794 18.3108 14.5607C18.0295 14.842 17.648 15.0001 17.2502 15.0001Z" fill="#2361A9"/>
</svg>
